<svg width="384" height="384" viewBox="0 0 384 384" fill="none" xmlns="http://www.w3.org/2000/svg">
<g clip-path="url(#clip0_9_2)">
<rect x="16" y="16" width="352" height="352" rx="40" stroke="white" stroke-width="32"/>
<path d="M169.989 140.387C174.191 139.021 178.705 141.322 180.07 145.523L184.724 159.847C184.869 160.293 185.306 160.577 185.773 160.536C189.877 160.175 193.965 160.138 198.004 160.407C198.464 160.438 198.89 160.155 199.032 159.716L203.573 145.744C204.939 141.542 209.451 139.243 213.652 140.607L232.674 146.788C236.876 148.153 239.176 152.667 237.811 156.869L233.395 170.457C233.249 170.904 233.435 171.391 233.838 171.633C237.685 173.936 241.344 176.564 244.769 179.492C245.123 179.795 245.639 179.819 246.017 179.545L259.799 169.533C263.373 166.936 268.376 167.729 270.973 171.303L282.73 187.483C285.326 191.058 284.533 196.061 280.959 198.658L267.086 208.737C266.71 209.01 266.573 209.505 266.748 209.935C267.494 211.76 268.18 213.626 268.799 215.531C269.411 217.414 269.947 219.303 270.412 221.195C270.523 221.646 270.925 221.965 271.389 221.965H286.429C290.847 221.965 294.43 225.548 294.43 229.966L294.429 249.965C294.429 254.383 290.848 257.966 286.43 257.966L271.536 257.965C271.07 257.965 270.666 258.287 270.558 258.741C269.492 263.208 268.047 267.564 266.246 271.763C266.061 272.195 266.196 272.7 266.577 272.977L278.197 281.419C281.772 284.016 282.565 289.019 279.968 292.594L268.211 308.774C265.614 312.348 260.611 313.14 257.037 310.543L245.022 301.813C244.649 301.543 244.14 301.562 243.785 301.856C240.716 304.403 237.433 306.735 233.954 308.823C233.552 309.065 233.367 309.552 233.512 309.998L238.165 324.322C239.53 328.524 237.231 333.037 233.029 334.402L214.008 340.583C209.806 341.948 205.293 339.648 203.928 335.446L199.161 320.778C199.018 320.339 198.593 320.055 198.132 320.087C193.937 320.375 189.763 320.327 185.645 319.96C185.176 319.918 184.739 320.203 184.594 320.65L179.716 335.667C178.35 339.869 173.837 342.169 169.635 340.804L150.613 334.623C146.412 333.258 144.112 328.744 145.478 324.542L150.492 309.104C150.635 308.665 150.459 308.185 150.068 307.939C146.899 305.945 143.865 303.728 140.993 301.3C140.639 301 140.125 300.978 139.75 301.251L128.864 309.161C125.29 311.758 120.287 310.966 117.689 307.392L105.934 291.212C103.337 287.637 104.13 282.634 107.704 280.037L118.511 272.185C118.888 271.911 119.024 271.412 118.846 270.981C118.035 269.026 117.295 267.022 116.63 264.974C115.957 262.903 115.372 260.824 114.875 258.742C114.767 258.288 114.363 257.965 113.897 257.965L98.4297 257.966C94.0116 257.966 90.4289 254.384 90.4287 249.966L90.4297 229.965C90.43 225.547 94.0117 221.966 98.4297 221.966H114.027C114.491 221.966 114.893 221.646 115.004 221.196C115.883 217.627 117.006 214.129 118.358 210.729C118.528 210.301 118.39 209.811 118.018 209.54L104.942 200.04C101.368 197.443 100.575 192.44 103.172 188.865L114.928 172.685C117.525 169.11 122.528 168.319 126.103 170.916L138.75 180.104C139.131 180.381 139.653 180.354 140.007 180.044C143.162 177.28 146.556 174.746 150.172 172.48C150.563 172.235 150.741 171.755 150.598 171.315L145.832 156.647C144.467 152.446 146.767 147.933 150.969 146.567L169.989 140.387ZM192.495 188C163.776 188 140.495 211.281 140.495 240C140.495 268.719 163.776 292 192.495 292C221.214 292 244.495 268.719 244.495 240C244.495 211.281 221.214 188 192.495 188Z" fill="white"/>
<rect x="50" y="53" width="24" height="24" rx="8" fill="white"/>
<rect x="119" y="53" width="24" height="24" rx="8" fill="white"/>
<rect x="85" y="53" width="24" height="24" rx="8" fill="white"/>
<rect x="24" y="96" width="336" height="32" fill="white"/>
</g>
<defs>
<clipPath id="clip0_9_2">
<rect width="384" height="384" fill="white"/>
</clipPath>
</defs>
</svg>
